<svg xmlns="http://www.w3.org/2000/svg" viewBox="0 0 280.54 327.98">
  <path d="M48.98 77.2h23.85L31.74 179.74q-2.26 5.72-4.47 11.64t-4 11.72q-1.69 5.79-2.74 11.13a51.63 51.63 0 0 0-1 9.89q0 10.11 5.88 16.11t18.29 6a53.15 53.15 0 0 0 20.87-4.25 75.93 75.93 0 0 0 20-12.82 147 147 0 0 0 19.9-21.53q10-13 20.79-30.25l8.38-13.48 4.35 2.78-8.38 13.48a394.41 394.41 0 0 1-22.48 32.74 148.44 148.44 0 0 1-21.43 22.85 79.64 79.64 0 0 1-21.83 13.4 63.85 63.85 0 0 1-23.69 4.39 50.84 50.84 0 0 1-17.32-2.71 34.29 34.29 0 0 1-12.59-7.66 32 32 0 0 1-7.65-12A45.27 45.27 0 0 1 0 215.46a77.66 77.66 0 0 1 2-16.7 131.82 131.82 0 0 1 5.88-19zm12.89-38.38a11.57 11.57 0 0 1 3.95-8.79 13.59 13.59 0 0 1 9.59-3.66A13.76 13.76 0 0 1 85 29.96a11.52 11.52 0 0 1 2.9 13.5 11.47 11.47 0 0 1-2.9 3.88 14.33 14.33 0 0 1-4.35 2.56 15 15 0 0 1-5.4 1 13.77 13.77 0 0 1-9.51-3.44 11 11 0 0 1-3.86-8.64z"/>
  <path d="M121.66 77.2h46.89l6.61-16.41q11.76-29.44 30.45-45.12T247.34 0a50.37 50.37 0 0 1 13.37 1.68 33.3 33.3 0 0 1 10.48 4.78 23.93 23.93 0 0 1 6.85 7.25 17.51 17.51 0 0 1 2.5 9.16q0 7-3.87 10.91t-10.63 3.88q-5.48 0-8.62-2.86a10.06 10.06 0 0 1-3.15-7.84 10.7 10.7 0 0 1 2.74-7.62 9.46 9.46 0 0 1 7.26-2.93 10.41 10.41 0 0 1 3.22.59 6.19 6.19 0 0 0 .81.29 2.84 2.84 0 0 0 .81.15q1.45 0 1.45-1.76a4.77 4.77 0 0 0-2-3.81 17.45 17.45 0 0 0-5.16-2.71 39.26 39.26 0 0 0-6.95-1.7 48.14 48.14 0 0 0-7.33-.59 35 35 0 0 0-14.34 2.93 39.08 39.08 0 0 0-12.57 9.3 84.76 84.76 0 0 0-11.6 16.41 206.09 206.09 0 0 0-11.28 24.1l-7.06 17.59h48.66v5.86h-50.95l-98 244.92H68.17l98-244.92h-44.51V77.2z"/>
</svg>
