<svg xmlns="http://www.w3.org/2000/svg" viewBox="0 0 100 100">
  <path d="M84.145 13.73L30.552 33.207C20.75 36.77 15.674 47.644 19.235 57.45l2.02 5.557c.826 2.272-.287 4.754-2.535 5.647-4.618 1.836-6.905 6.932-5.207 11.6.832 2.29 2.507 4.124 4.717 5.154 1.23.574 2.54.862 3.857.862 1.052 0 2.106-.185 3.125-.554L66.23 70.81c3.4-1.238 6.117-3.724 7.65-7.003 1.53-3.28 1.69-6.96.454-10.36l-.015-.046c5.47-3.26 8.04-10.06 5.79-16.26l-.38-1.03c2.64-1.365 4.75-3.553 6.03-6.293 1.53-3.28 1.692-6.96.46-10.362l-2.08-5.715zm-3 13.922c-.954 2.045-2.648 3.597-4.772 4.367l-.735.26-19.57 7.11 1.74 4.793 17.172-6.24.337.926c1.59 4.38-.677 9.234-5.056 10.825l-20.3 7.38 1.748 4.795 17.89-6.5c.7 2.07.596 4.285-.332 6.27-.954 2.045-2.65 3.597-4.77 4.367L23.47 80.92c-1.007.37-2.106.32-3.08-.133-.975-.455-1.714-1.262-2.08-2.276-.75-2.05.26-4.3 2.3-5.11 4.825-1.92 7.218-7.25 5.444-12.13l-2.02-5.56c-2.6-7.16 1.106-15.1 8.265-17.702L81.1 20.27l.335.925c.773 2.125.67 4.418-.283 6.462z"/>
</svg>

